<svg width="60" height="60" fill="none" xmlns="http://www.w3.org/2000/svg"><path d="M24.144 23.772c0-2.83-1.925-2.83-1.925-2.83h-7.922v6.073h7.43c1.285 0 2.417-.411 2.417-3.243zM22.22 31.21h-7.923v7.274h7.556c1.137-.033 3.235-.389 3.235-3.536 0-3.776-2.869-3.738-2.869-3.738zm20.281-4.195c-4.204 0-4.79 4.195-4.79 4.195h8.94s.054-4.195-4.15-4.195z" fill="#131313"/><path d="M30 0C13.431 0 0 13.432 0 30c0 16.568 13.431 30 30 30 16.569 0 30-13.432 30-30C60 13.432 46.569 0 30 0zm6.54 17.707h11.23v3.352H36.54v-3.352zm-5.674 17.578c0 8.307-8.645 8.034-8.645 8.034H8.058V16.104H22.22c4.304 0 7.701 2.376 7.701 7.246 0 4.87-4.153 5.18-4.153 5.18 5.475 0 5.098 6.755 5.098 6.755zm11.69 4.293c4.523 0 4.363-2.928 4.363-2.928h4.79c0 7.77-9.313 7.238-9.313 7.238-11.176 0-10.457-10.404-10.457-10.404s-.009-10.456 10.456-10.456c11.016 0 9.473 11.813 9.473 11.813H37.766c0 5.057 4.79 4.737 4.79 4.737z" fill="#131313"/></svg>