<svg width="20" height="20" fill="none" xmlns="http://www.w3.org/2000/svg"><g clip-path="url(#clip0_34_824)" fill="#131313"><path d="M13.26 10.102l6.742 4.263V5.66l-6.742 4.442zM0 5.66v8.705l6.742-4.263L0 5.66zm18.75-2.535H1.25c-.624 0-1.12.465-1.213 1.064L10 10.752l9.962-6.563c-.094-.599-.589-1.064-1.212-1.064zm-6.636 7.733l-1.77 1.165a.625.625 0 01-.687 0L7.89 10.856.04 15.82c.096.594.589 1.055 1.21 1.055h17.5c.621 0 1.114-.461 1.21-1.055l-7.847-4.962z"/></g><defs><clipPath id="clip0_34_824"><path fill="#fff" d="M0 0h20v20H0z"/></clipPath></defs></svg>