<svg width="60" height="60" fill="none" xmlns="http://www.w3.org/2000/svg"><path d="M35.454 30a5.454 5.454 0 11-10.909 0 5.454 5.454 0 0110.909 0z" fill="#131313"/><path d="M42.966 20.19a5.154 5.154 0 00-1.244-1.913 5.149 5.149 0 00-1.912-1.244c-.587-.227-1.467-.498-3.089-.572-1.754-.08-2.28-.097-6.721-.097-4.442 0-4.968.016-6.722.096-1.621.075-2.502.346-3.088.573a5.145 5.145 0 00-1.912 1.244 5.158 5.158 0 00-1.245 1.913c-.228.586-.499 1.467-.573 3.089-.08 1.754-.097 2.28-.097 6.721 0 4.441.018 4.967.098 6.722.073 1.621.344 2.502.572 3.088a5.156 5.156 0 001.244 1.912 5.15 5.15 0 001.913 1.245c.586.228 1.467.499 3.088.573 1.754.08 2.28.096 6.721.096 4.442 0 4.969-.016 6.722-.096 1.622-.074 2.503-.345 3.089-.573a5.508 5.508 0 003.156-3.157c.228-.586.499-1.467.573-3.088.08-1.755.097-2.28.097-6.722 0-4.441-.017-4.967-.097-6.721-.074-1.622-.345-2.503-.573-3.089zM30 38.541a8.541 8.541 0 110-17.082 8.541 8.541 0 110 17.082zm8.879-15.424a1.996 1.996 0 110-3.992 1.996 1.996 0 010 3.992z" fill="#131313"/><path d="M30 0C13.434 0 0 13.434 0 30c0 16.566 13.434 30 30 30 16.566 0 30-13.434 30-30C60 13.434 46.566 0 30 0zm17.123 37.102c-.084 1.834-.375 3.086-.801 4.182a8.808 8.808 0 01-5.038 5.038c-1.096.426-2.348.717-4.181.8-1.837.084-2.424.105-7.103.105-4.678 0-5.265-.02-7.102-.104-1.834-.084-3.086-.375-4.181-.801a8.44 8.44 0 01-3.052-1.987 8.445 8.445 0 01-1.987-3.051c-.425-1.096-.717-2.348-.8-4.181-.085-1.838-.105-2.425-.105-7.103s.02-5.265.104-7.102c.084-1.834.375-3.086.8-4.182a8.44 8.44 0 011.988-3.05 8.44 8.44 0 013.051-1.988c1.096-.426 2.348-.717 4.182-.8 1.837-.084 2.424-.105 7.102-.105 4.678 0 5.265.02 7.102.105 1.834.083 3.086.374 4.182.8a8.445 8.445 0 013.051 1.987 8.44 8.44 0 011.987 3.051c.426 1.096.717 2.348.801 4.182.084 1.837.104 2.424.104 7.102 0 4.678-.02 5.265-.104 7.102z" fill="#131313"/></svg>