<svg width="252" height="95" fill="none" xmlns="http://www.w3.org/2000/svg"><path d="M13.518 59V17.06h9.42v34.08h22.08V59h-31.5zm37.324 0V17.06h32.22v7.5h-22.8v9.66h18.72v6.9h-18.72V51.5h23.28V59h-32.7zm135.07 0l-3.12-8.76h-18.54l-3.12 8.76h-9.6l16.38-41.94h11.64L195.932 59h-10.02zm-18.96-16.32h13.14l-6.6-18.66-6.54 18.66zM201.018 59V17.06h17.28c7.24 0 12.86 1.78 16.86 5.34 4 3.52 6 8.64 6 15.36 0 7.08-2 12.4-6 15.96-4 3.52-9.78 5.28-17.34 5.28h-16.8zm9.3-7.38h8.34c4.2 0 7.36-1.22 9.48-3.66 2.12-2.44 3.18-5.96 3.18-10.56 0-4.28-1.06-7.52-3.18-9.72-2.08-2.2-5.14-3.3-9.18-3.3h-8.64v27.24z" fill="#131313"/><path d="M25.773 80.163l-3.48 10.5h-2.07l-2.595-7.77-2.64 7.77h-2.085l-3.48-10.5h2.025l2.61 7.98 2.715-7.98h1.8l2.655 8.025 2.685-8.025h1.86zm26.564 8.865v1.635H44.46v-10.5h7.666v1.635H46.41v2.73h5.07v1.605h-5.07v2.895h5.925zm26.188-3.78c.69.15 1.22.45 1.59.9.38.44.57 1.01.57 1.71 0 .9-.335 1.595-1.005 2.085-.66.48-1.64.72-2.94.72h-4.83v-10.5h4.53c1.17 0 2.075.235 2.715.705.65.47.975 1.135.975 1.995 0 .58-.145 1.075-.435 1.485-.28.4-.67.7-1.17.9zm-5.505-4.17v3.81h3.345c.85 0 1.505-.16 1.965-.48.46-.33.69-.805.69-1.425s-.23-1.09-.69-1.41c-.46-.33-1.115-.495-1.965-.495H73.02zm3.705 8.67c.94 0 1.65-.16 2.13-.48.48-.32.72-.82.72-1.5 0-1.31-.95-1.965-2.85-1.965H73.02v3.945h3.705z" fill="#FB1B3D"/><path d="M103.214 90.753a6.81 6.81 0 01-2.25-.375c-.71-.25-1.26-.58-1.65-.99l.435-.855c.38.38.885.69 1.515.93.63.23 1.28.345 1.95.345.94 0 1.645-.17 2.115-.51.47-.35.705-.8.705-1.35 0-.42-.13-.755-.39-1.005-.25-.25-.56-.44-.93-.57-.37-.14-.885-.29-1.545-.45-.79-.2-1.42-.39-1.89-.57a3.24 3.24 0 01-1.215-.855c-.33-.38-.495-.895-.495-1.545 0-.53.14-1.01.42-1.44.28-.44.71-.79 1.29-1.05.58-.26 1.3-.39 2.16-.39.6 0 1.185.085 1.755.255.58.16 1.08.385 1.5.675l-.375.885c-.44-.29-.91-.505-1.41-.645a5.1 5.1 0 00-1.47-.225c-.92 0-1.615.18-2.085.54-.46.35-.69.805-.69 1.365 0 .42.125.76.375 1.02.26.25.58.445.96.585.39.13.91.275 1.56.435.77.19 1.39.38 1.86.57.48.18.885.46 1.215.84.33.37.495.875.495 1.515 0 .53-.145 1.015-.435 1.455-.28.43-.715.775-1.305 1.035-.59.25-1.315.375-2.175.375zm25.327-9.63h-3.69v-.96h8.49v.96h-3.69v9.54h-1.11v-9.54zm27.698 9.63c-1.36 0-2.42-.39-3.18-1.17-.76-.78-1.14-1.915-1.14-3.405v-6.015h1.11v5.97c0 1.22.275 2.13.825 2.73.55.6 1.345.9 2.385.9 1.05 0 1.85-.3 2.4-.9.55-.6.825-1.51.825-2.73v-5.97h1.08v6.015c0 1.49-.38 2.625-1.14 3.405-.75.78-1.805 1.17-3.165 1.17zm24.75-10.59h4.275c1.11 0 2.09.225 2.94.675.85.44 1.51 1.06 1.98 1.86.47.79.705 1.695.705 2.715 0 1.02-.235 1.93-.705 2.73-.47.79-1.13 1.41-1.98 1.86-.85.44-1.83.66-2.94.66h-4.275v-10.5zm4.215 9.54c.92 0 1.725-.18 2.415-.54a4.045 4.045 0 001.605-1.515c.38-.65.57-1.395.57-2.235 0-.84-.19-1.58-.57-2.22a3.912 3.912 0 00-1.605-1.515c-.69-.37-1.495-.555-2.415-.555h-3.105v8.58h3.105zm25.278-9.54h1.11v10.5h-1.11v-10.5zm26.216 10.59c-1.04 0-1.985-.23-2.835-.69-.84-.47-1.5-1.11-1.98-1.92-.47-.81-.705-1.72-.705-2.73s.235-1.92.705-2.73a5.109 5.109 0 011.98-1.905c.85-.47 1.795-.705 2.835-.705s1.975.23 2.805.69c.84.46 1.5 1.1 1.98 1.92.48.81.72 1.72.72 2.73s-.24 1.925-.72 2.745a5.109 5.109 0 01-1.98 1.905c-.83.46-1.765.69-2.805.69zm0-.99c.83 0 1.58-.185 2.25-.555a4.14 4.14 0 001.575-1.56c.38-.67.57-1.415.57-2.235 0-.82-.19-1.56-.57-2.22a4.004 4.004 0 00-1.575-1.56c-.67-.38-1.42-.57-2.25-.57-.83 0-1.585.19-2.265.57-.67.37-1.2.89-1.59 1.56-.38.66-.57 1.4-.57 2.22 0 .82.19 1.565.57 2.235.39.66.92 1.18 1.59 1.56.68.37 1.435.555 2.265.555z" fill="#131313"/><path d="M119.549 6.831L97.916 26.076m0 0l5.351 4.761m-5.351-4.76v19.245m21.633 0l-5.466-4.862m5.466 4.862v21.473m0-21.473l5.465-4.862m16.167-14.384l-.683.608M114.083 40.46l20.722-18.435M114.083 40.46l-5.465-4.862m5.465 4.862v20.663m-5.465-25.525l20.722-18.435m-20.722 18.435l-5.351-4.76m5.351 4.76v19.447m-5.351-24.208l20.38-18.13m-20.38 18.13V50.59m21.747-10.13v20.664m0-20.663l5.465-4.862m0 0V56.26m0-20.663l4.326-3.85m0 0v18.84m0-18.84l5.693-5.064m0 0v19.853" stroke="#FB1B3D" stroke-width="3"/></svg>