<svg width="252" height="95" fill="none" xmlns="http://www.w3.org/2000/svg"><path d="M13.518 59V17.06h9.42v34.08h22.08V59h-31.5zm37.324 0V17.06h32.22v7.5h-22.8v9.66h18.72v6.9h-18.72V51.5h23.28V59h-32.7zm135.07 0l-3.12-8.76h-18.54l-3.12 8.76h-9.6l16.38-41.94h11.64L195.932 59h-10.02zm-18.96-16.32h13.14l-6.6-18.66-6.54 18.66zM201.018 59V17.06h17.28c7.24 0 12.86 1.78 16.86 5.34 4 3.52 6 8.64 6 15.36 0 7.08-2 12.4-6 15.96-4 3.52-9.78 5.28-17.34 5.28h-16.8zm9.3-7.38h8.34c4.2 0 7.36-1.22 9.48-3.66 2.12-2.44 3.18-5.96 3.18-10.56 0-4.28-1.06-7.52-3.18-9.72-2.08-2.2-5.14-3.3-9.18-3.3h-8.64v27.24z" fill="#fff"/><path d="M12.903 90.663l-3.48-10.5h2.025l3.105 9.495h-1.005l3.225-9.495h1.8l3.135 9.495h-.975l3.18-9.495h1.86l-3.48 10.5h-2.07l-2.865-8.565h.54l-2.91 8.565h-2.085zm33.358-6.135h5.22v1.605h-5.22v-1.605zm.15 4.5h5.925v1.635h-7.874v-10.5h7.664v1.635h-5.715v7.23zm25.5 1.635v-10.5h4.53c1.17 0 2.074.235 2.714.705.65.47.975 1.135.975 1.995 0 .57-.135 1.05-.405 1.44-.26.39-.62.685-1.08.885-.45.2-.945.3-1.485.3l.255-.36c.67 0 1.245.105 1.725.315.49.2.87.505 1.14.915.27.4.405.9.405 1.5 0 .89-.33 1.58-.99 2.07-.65.49-1.635.735-2.955.735h-4.83zm1.11-.915h3.704c.92 0 1.625-.155 2.115-.465.49-.32.735-.825.735-1.515 0-.68-.245-1.175-.735-1.485-.49-.32-1.195-.48-2.115-.48H72.9v-.915h3.465c.84 0 1.49-.16 1.95-.48.47-.32.705-.795.705-1.425 0-.64-.235-1.115-.705-1.425-.46-.32-1.11-.48-1.95-.48H73.02v8.67z" fill="#FB1B3D"/><path d="M103.214 90.753a6.81 6.81 0 01-2.25-.375c-.71-.26-1.26-.59-1.65-.99l.435-.855c.37.36.865.665 1.485.915.63.24 1.29.36 1.98.36.66 0 1.195-.08 1.605-.24.42-.17.725-.395.915-.675.2-.28.3-.59.3-.93 0-.41-.12-.74-.36-.99a2.294 2.294 0 00-.915-.585c-.38-.15-.8-.28-1.26-.39-.46-.11-.92-.225-1.38-.345-.46-.13-.885-.3-1.275-.51-.38-.21-.69-.485-.93-.825-.23-.35-.345-.805-.345-1.365 0-.52.135-.995.405-1.425.28-.44.705-.79 1.275-1.05.57-.27 1.3-.405 2.19-.405.59 0 1.175.085 1.755.255.58.16 1.08.385 1.5.675l-.375.885c-.45-.3-.93-.52-1.44-.66-.5-.14-.985-.21-1.455-.21-.63 0-1.15.085-1.56.255-.41.17-.715.4-.915.69-.19.28-.285.6-.285.96 0 .41.115.74.345.99.24.25.55.445.93.585.39.14.815.265 1.275.375.46.11.915.23 1.365.36.46.13.88.3 1.26.51.39.2.7.47.93.81.24.34.36.785.36 1.335 0 .51-.14.985-.42 1.425-.28.43-.71.78-1.29 1.05-.57.26-1.305.39-2.205.39zm25.327-.09v-9.54h-3.69v-.96h8.49v.96h-3.69v9.54h-1.11zm27.698.09c-1.34 0-2.395-.385-3.165-1.155s-1.155-1.91-1.155-3.42v-6.015h1.11v5.97c0 1.24.28 2.155.84 2.745.56.59 1.35.885 2.37.885 1.03 0 1.825-.295 2.385-.885.56-.59.84-1.505.84-2.745v-5.97h1.08v6.015c0 1.51-.385 2.65-1.155 3.42-.76.77-1.81 1.155-3.15 1.155zm24.75-.09v-10.5h4.275c1.12 0 2.1.225 2.94.675.85.44 1.51 1.055 1.98 1.845s.705 1.7.705 2.73-.235 1.94-.705 2.73-1.13 1.41-1.98 1.86c-.84.44-1.82.66-2.94.66h-4.275zm1.11-.96h3.105c.93 0 1.735-.18 2.415-.54a4.045 4.045 0 001.605-1.515c.38-.65.57-1.395.57-2.235 0-.85-.19-1.595-.57-2.235a3.942 3.942 0 00-1.605-1.5c-.68-.37-1.485-.555-2.415-.555h-3.105v8.58zm28.383.96v-10.5h1.11v10.5h-1.11zm26.216.09c-.79 0-1.525-.13-2.205-.39a5.444 5.444 0 01-1.755-1.125 5.484 5.484 0 01-1.155-1.695 5.498 5.498 0 01-.405-2.13c0-.77.135-1.475.405-2.115.28-.65.665-1.215 1.155-1.695a5.13 5.13 0 011.755-1.125 5.846 5.846 0 012.205-.405c.79 0 1.52.135 2.19.405.67.26 1.25.63 1.74 1.11.5.48.885 1.045 1.155 1.695.28.65.42 1.36.42 2.13 0 .77-.14 1.48-.42 2.13a4.96 4.96 0 01-1.155 1.695c-.49.48-1.07.855-1.74 1.125-.67.26-1.4.39-2.19.39zm0-.99c.63 0 1.21-.105 1.74-.315a4.175 4.175 0 001.395-.915c.4-.4.71-.86.93-1.38.22-.53.33-1.11.33-1.74 0-.63-.11-1.205-.33-1.725a4.1 4.1 0 00-.93-1.38c-.39-.4-.855-.705-1.395-.915-.53-.22-1.11-.33-1.74-.33-.63 0-1.215.11-1.755.33-.54.21-1.01.515-1.41.915-.39.39-.7.85-.93 1.38-.22.52-.33 1.095-.33 1.725 0 .62.11 1.195.33 1.725.23.53.54.995.93 1.395.4.39.87.695 1.41.915a4.8 4.8 0 001.755.315z" fill="#fff"/><path d="M119.548 6.831L97.915 26.076m0 0l5.352 4.761m-5.352-4.76v19.245m21.633 0l-5.465-4.862m5.465 4.862v21.473m0-21.473l5.465-4.862m16.168-14.384l-.684.608M114.083 40.46l20.722-18.435M114.083 40.46l-5.465-4.862m5.465 4.862v20.663m-5.465-25.525l20.722-18.435m-20.722 18.435l-5.351-4.76m5.351 4.76v19.447m-5.351-24.208l20.38-18.13m-20.38 18.13V50.59m21.746-10.13v20.664m0-20.663l5.465-4.862m0 0V56.26m0-20.663l4.327-3.85m0 0v18.84m0-18.84l5.692-5.064m0 0v19.853" stroke="#FB1B3D" stroke-width="3"/></svg>