<svg width="20" height="20" fill="none" xmlns="http://www.w3.org/2000/svg"><g clip-path="url(#clip0_34_820)"><path d="M19.454 14.678l-2.79-2.791c-.998-.997-2.692-.598-3.091.698-.299.897-1.296 1.395-2.193 1.196-1.994-.498-4.685-3.09-5.183-5.184-.3-.897.299-1.894 1.196-2.193 1.296-.398 1.694-2.093.698-3.09L5.3.524c-.798-.698-1.994-.698-2.692 0L.714 2.416C-1.18 4.411.914 9.694 5.6 14.38s9.968 6.878 11.961 4.884l1.894-1.894c.698-.797.698-1.993 0-2.691z" fill="#131313"/></g><defs><clipPath id="clip0_34_820"><path fill="#fff" d="M0 0h20v20H0z"/></clipPath></defs></svg>