<svg width="96" height="15" fill="none" xmlns="http://www.w3.org/2000/svg"><g clip-path="url(#clip0_34_177)"><path d="M14.508 5.912a.409.409 0 00-.33-.279l-4.329-.629-1.936-3.922a.409.409 0 00-.734 0L5.243 5.004l-4.328.63a.409.409 0 00-.227.697L3.82 9.384l-.74 4.312a.409.409 0 00.594.43l3.872-2.035 3.872 2.036a.41.41 0 00.594-.432l-.74-4.31 3.133-3.054a.41.41 0 00.103-.42z" fill="#131313"/></g><g clip-path="url(#clip1_34_177)"><path d="M35.043 5.912a.409.409 0 00-.33-.279l-4.329-.629-1.936-3.922a.409.409 0 00-.733 0l-1.936 3.922-4.33.63a.409.409 0 00-.226.697l3.132 3.053-.739 4.312a.409.409 0 00.594.43l3.871-2.035 3.872 2.036a.41.41 0 00.594-.432l-.74-4.31L34.94 6.33a.409.409 0 00.103-.42z" fill="#131313"/></g><g clip-path="url(#clip2_34_177)"><path d="M55.576 5.912a.427.427 0 00-.35-.279l-4.583-.629-2.05-3.922a.436.436 0 00-.388-.228.436.436 0 00-.388.228l-2.05 3.922-4.584.63a.427.427 0 00-.35.278.394.394 0 00.11.419l3.317 3.053-.783 4.312a.399.399 0 00.172.4.45.45 0 00.456.03l4.1-2.035 4.1 2.036c.145.072.322.06.456-.031a.4.4 0 00.172-.4l-.783-4.312 3.317-3.053a.393.393 0 00.11-.42z" fill="#131313"/></g><g clip-path="url(#clip3_34_177)"><path d="M75.291 5.912a.409.409 0 00-.33-.279l-4.329-.629-1.936-3.922a.409.409 0 00-.733 0l-1.936 3.922-4.33.63a.41.41 0 00-.226.697l3.132 3.053-.739 4.312a.41.41 0 00.594.43l3.871-2.035 3.872 2.036a.41.41 0 00.594-.432l-.74-4.31 3.133-3.054a.409.409 0 00.103-.42z" fill="#131313"/></g><g clip-path="url(#clip4_34_177)"><path d="M95.826 5.912a.409.409 0 00-.33-.279l-4.329-.629-1.936-3.922a.409.409 0 00-.733 0l-1.936 3.922-4.329.63a.409.409 0 00-.227.697l3.133 3.053-.74 4.312a.409.409 0 00.594.43l3.872-2.035 3.871 2.036a.41.41 0 00.594-.432l-.74-4.31 3.133-3.054a.409.409 0 00.103-.42z" fill="#131313"/></g><defs><clipPath id="clip0_34_177"><path fill="#fff" transform="translate(.564 .533)" d="M0 0h13.964v13.964H0z"/></clipPath><clipPath id="clip1_34_177"><path fill="#fff" transform="translate(21.1 .533)" d="M0 0h13.964v13.964H0z"/></clipPath><clipPath id="clip2_34_177"><path fill="#fff" transform="translate(40.813 .533)" d="M0 0h14.785v13.964H0z"/></clipPath><clipPath id="clip3_34_177"><path fill="#fff" transform="translate(61.348 .533)" d="M0 0h13.964v13.964H0z"/></clipPath><clipPath id="clip4_34_177"><path fill="#fff" transform="translate(81.883 .533)" d="M0 0h13.964v13.964H0z"/></clipPath></defs></svg>