<svg width="202" height="30" fill="none" xmlns="http://www.w3.org/2000/svg"><g clip-path="url(#clip0_34_124)"><path d="M29.957 11.558a.878.878 0 00-.71-.598l-9.3-1.352-4.159-8.427a.879.879 0 00-1.576 0l-4.16 8.427-9.3 1.352a.879.879 0 00-.487 1.499l6.73 6.56-1.589 9.262a.879.879 0 001.276.927L15 24.835l8.318 4.373a.879.879 0 001.275-.927l-1.588-9.262 6.73-6.56a.879.879 0 00.222-.901z" fill="#131313"/></g><g clip-path="url(#clip1_34_124)"><path d="M72.957 11.558a.878.878 0 00-.71-.598l-9.3-1.352-4.159-8.427a.879.879 0 00-1.576 0l-4.16 8.427-9.3 1.352a.878.878 0 00-.486 1.499l6.729 6.56-1.588 9.262a.879.879 0 001.275.927L58 24.835l8.318 4.373a.879.879 0 001.275-.927l-1.589-9.262 6.73-6.56a.879.879 0 00.223-.901z" fill="#131313"/></g><g clip-path="url(#clip2_34_124)"><path d="M115.957 11.558a.878.878 0 00-.709-.598l-9.301-1.352-4.159-8.427a.878.878 0 00-1.576 0l-4.16 8.427-9.3 1.352a.878.878 0 00-.486 1.499l6.729 6.56-1.589 9.262a.879.879 0 001.276.927L101 24.835l8.318 4.373a.88.88 0 001.275-.927l-1.589-9.262 6.731-6.56a.88.88 0 00.222-.901z" fill="#131313"/></g><g clip-path="url(#clip3_34_124)"><path d="M158.957 11.558a.878.878 0 00-.709-.598l-9.301-1.352-4.159-8.427a.878.878 0 00-1.576 0l-4.16 8.427-9.299 1.352a.879.879 0 00-.488 1.499l6.73 6.56-1.589 9.262a.88.88 0 001.276.927L144 24.835l8.318 4.373a.88.88 0 001.275-.927l-1.589-9.262 6.731-6.56a.88.88 0 00.222-.901z" fill="#131313"/></g><g clip-path="url(#clip4_34_124)"><path d="M201.957 11.558a.878.878 0 00-.709-.598l-9.301-1.352-4.159-8.427a.878.878 0 00-1.576 0l-4.16 8.427-9.299 1.352a.879.879 0 00-.488 1.499l6.73 6.56-1.589 9.262a.88.88 0 001.276.927L187 24.835l8.318 4.373a.88.88 0 001.275-.927l-1.589-9.262 6.731-6.56a.88.88 0 00.222-.901z" fill="#131313"/></g><defs><clipPath id="clip0_34_124"><path fill="#fff" d="M0 0h30v30H0z"/></clipPath><clipPath id="clip1_34_124"><path fill="#fff" transform="translate(43)" d="M0 0h30v30H0z"/></clipPath><clipPath id="clip2_34_124"><path fill="#fff" transform="translate(86)" d="M0 0h30v30H0z"/></clipPath><clipPath id="clip3_34_124"><path fill="#fff" transform="translate(129)" d="M0 0h30v30H0z"/></clipPath><clipPath id="clip4_34_124"><path fill="#fff" transform="translate(172)" d="M0 0h30v30H0z"/></clipPath></defs></svg>