<svg width="36" height="36" fill="none" xmlns="http://www.w3.org/2000/svg"><g filter="url(#filter0_d_2960_5)"><ellipse cx="18.363" cy="16" rx="12" ry="11.636" transform="rotate(-90 18.363 16)" fill="#fff"/></g><g clip-path="url(#clip0_2960_5)" fill="#131313"><path d="M15.527 13.293c-.72.687-1.185 1.657-1.185 2.707 0 1.05.444 2.02 1.185 2.707a4.133 4.133 0 002.836 1.131c1.1 0 2.116-.444 2.836-1.13.72-.688 1.185-1.657 1.185-2.708 0-1.05-.444-2.02-1.185-2.707a4.132 4.132 0 00-2.836-1.131c-1.1 0-2.116.424-2.836 1.13zm4.91.727a2.73 2.73 0 01.847 1.98 2.73 2.73 0 01-.847 1.98 3 3 0 01-2.074.808 3 3 0 01-2.074-.808 2.73 2.73 0 01-.847-1.98c0-.768.318-1.475.847-1.98a3 3 0 012.074-.808 3 3 0 012.074.808zm-2.624-5.132v1.556c0 .283.254.525.55.525.296 0 .55-.242.55-.525V8.888c0-.282-.254-.525-.55-.525-.296 0-.55.243-.55.525zM23.633 16c0 .282.254.525.55.525h1.63c.296 0 .55-.242.55-.525 0-.283-.254-.526-.55-.526h-1.63c-.296 0-.55.243-.55.526zm-.381-5.394l-1.164 1.11c-.211.183-.211.526 0 .728.212.202.55.202.762 0l1.164-1.11a.496.496 0 000-.728.555.555 0 00-.762 0zM10.363 16c0 .282.254.525.55.525h1.63c.296 0 .55-.242.55-.525 0-.283-.254-.526-.55-.526h-1.63c-.296 0-.55.243-.55.526zm2.35-5.414a.496.496 0 000 .727l1.164 1.111c.212.202.55.202.762 0 .212-.182.212-.525 0-.727l-1.164-1.111a.555.555 0 00-.762 0zm5.1 10.969v1.556c0 .283.254.525.55.525.296 0 .55-.222.55-.525v-1.556c0-.282-.254-.525-.55-.525-.296 0-.55.243-.55.525zm4.275-1.979c-.211.181-.211.525 0 .727l1.164 1.11c.212.203.55.203.762 0a.496.496 0 000-.726l-1.164-1.111a.555.555 0 00-.762 0zm-8.211 0l-1.164 1.11a.496.496 0 000 .728c.212.202.55.202.762 0l1.164-1.111a.496.496 0 000-.727.555.555 0 00-.762 0z"/></g><defs><clipPath id="clip0_2960_5"><path fill="#fff" transform="rotate(-90 17 6.636)" d="M0 0h15.273v16H0z"/></clipPath><filter id="filter0_d_2960_5" x=".727" y="0" width="35.273" height="36" filterUnits="userSpaceOnUse" color-interpolation-filters="sRGB"><feFlood flood-opacity="0" result="BackgroundImageFix"/><feColorMatrix in="SourceAlpha" values="0 0 0 0 0 0 0 0 0 0 0 0 0 0 0 0 0 0 127 0" result="hardAlpha"/><feOffset dy="2"/><feGaussianBlur stdDeviation="3"/><feColorMatrix values="0 0 0 0 0 0 0 0 0 0 0 0 0 0 0 0 0 0 0.4 0"/><feBlend in2="BackgroundImageFix" result="effect1_dropShadow_2960_5"/><feBlend in="SourceGraphic" in2="effect1_dropShadow_2960_5" result="shape"/></filter></defs></svg>