<svg width="1473" height="820" fill="none" xmlns="http://www.w3.org/2000/svg"><path d="M114.852 81.822l158.282-54.791 13.884 53.65m13.885 53.649L1 54.426m299.903 79.904l105.521 17.547M300.903 134.33l-13.885-53.65m13.885 53.65l127.736-38.81m-22.215 56.357l22.215-56.357m-22.215 56.357l244.365-14.619M428.639 95.52L287.018 80.68m141.621 14.84l222.15 41.738M428.639 95.52l88.86-68.49M287.018 80.68l230.481-53.65m0 0l49.984 54.792m83.306 55.436L859.055 55.65m-208.266 81.608l-83.306-55.436m83.306 55.436l206.877 82.276m1.389-163.884L567.483 81.822M859.055 55.65l-1.389 163.884m1.389-163.884L1064.54 2M857.666 219.534L1064.54 2M857.666 219.534l170.774 29.027M1064.54 2l88.86 107.3M1064.54 2l-36.1 246.561M1153.4 109.3l-124.96 139.261M1153.4 109.3l177.72-79.904M1153.4 109.3l31.94 94.743M1153.4 109.3l136.76 69.41m-261.72 69.851l220.77 79.463m-220.77-79.463l44.43 107.3m258.25-326.465l63.87 136.978m-63.87-136.978l-40.96 149.314m40.96-149.314l-9.02 217.803m72.89-80.825l-12.49 123.281m12.49-123.281l-72.89 80.825m-72.89 80.825l80.38 47.365m-80.38-47.365l133.29-38.369m-133.29 38.369L1117.3 463.16m131.91-135.136l-63.87-123.981m63.87 123.981l40.95-149.314m-40.95 149.314l72.89-80.825m-72.89 80.825L1471 585m-141.41-209.611l52.91-85.734m-52.91 85.734L1471 585m-353.7-121.84l-44.43-107.299m44.43 107.299L1471 585m-353.7-121.84L902.543 610.627m170.327-254.766l112.47-151.818M1471 585l-227.36 64.306M1471 585l-170.75 226.468-133.93-27.629M1471 585l-204.04 87.024-100.64 111.815M902.543 610.627l232.497-78.653m-232.497 78.653L738.115 792.922m164.428-182.295l85.495 63.888m-85.495-63.888l-128.45 25.626m392.227 147.586l77.32-134.533m-77.32 134.533l-229.646 14.137m306.966-148.67l-255.602 25.209m255.602-25.209l-108.6-117.332M988.038 674.515l147.002-142.541M988.038 674.515l-51.364 123.461m51.364-123.461L738.115 792.922m198.559 5.054l-198.559-5.054m0 0c0 4.043-130.454 18.403-195.681 25.078m195.681-25.078l13.21-57.523m22.768-99.146l-22.768 99.146m22.768-99.146l-113.745 95.391M542.434 818l117.914-86.356M542.434 818l-110.441-20.024m319.332-62.577l-90.977-3.755" stroke="#FB1B3D" stroke-width="2"/></svg>